<svg width="200" height="201" viewBox="0 0 200 201" fill="none" xmlns="http://www.w3.org/2000/svg">
<rect y="0.735352" width="200" height="200" rx="15" fill="white"/>
<g clip-path="url(#clip0_657_141)">
<path d="M68.7503 88.2354H71.167C71.8514 92.9267 73.6677 97.381 76.459 101.213C79.2503 105.046 82.9326 108.141 87.1878 110.231L83.9712 126.306C81.3897 127.062 79.1215 128.631 77.5049 130.781C75.8882 132.931 75.0097 135.546 75.0003 138.235V146.569C75.0003 147.674 75.4393 148.734 76.2207 149.515C77.0021 150.296 78.0619 150.735 79.167 150.735H120.834C121.939 150.735 122.999 150.296 123.78 149.515C124.561 148.734 125 147.674 125 146.569V138.235C124.991 135.546 124.112 132.931 122.496 130.781C120.879 128.631 118.611 127.062 116.029 126.306L112.813 110.231C117.068 108.141 120.75 105.046 123.542 101.213C126.333 97.381 128.149 92.9267 128.834 88.2354H131.25C135.118 88.2354 138.827 86.6989 141.562 83.964C144.297 81.2291 145.834 77.5198 145.834 73.652C145.834 69.7843 144.297 66.0749 141.562 63.34C138.827 60.6051 135.118 59.0687 131.25 59.0687H128.4C127.542 56.6399 125.954 54.5357 123.853 53.0441C121.753 51.5524 119.243 50.746 116.667 50.7354H83.3337C80.7576 50.746 78.2477 51.5524 76.1474 53.0441C74.0471 54.5357 72.459 56.6399 71.6003 59.0687H68.7503C64.8826 59.0687 61.1733 60.6051 58.4384 63.34C55.7034 66.0749 54.167 69.7843 54.167 73.652C54.167 77.5198 55.7034 81.2291 58.4384 83.964C61.1733 86.6989 64.8826 88.2354 68.7503 88.2354ZM116.667 142.402H83.3337V138.235C83.3337 137.13 83.7726 136.07 84.5541 135.289C85.3355 134.508 86.3953 134.069 87.5003 134.069H112.5C113.605 134.069 114.665 134.508 115.447 135.289C116.228 136.07 116.667 137.13 116.667 138.235V142.402ZM104.921 113.235L107.421 125.735H92.5837L95.0837 113.235H104.921ZM137.5 73.652C137.5 75.3096 136.842 76.8993 135.67 78.0714C134.498 79.2435 132.908 79.902 131.25 79.902H129.167V67.402H131.25C132.908 67.402 134.498 68.0605 135.67 69.2326C136.842 70.4047 137.5 71.9944 137.5 73.652ZM83.3337 59.0687H116.667C117.772 59.0687 118.832 59.5077 119.613 60.2891C120.395 61.0705 120.834 62.1303 120.834 63.2354V84.0687C120.834 89.594 118.639 94.8931 114.732 98.8001C110.825 102.707 105.526 104.902 100 104.902C94.475 104.902 89.1759 102.707 85.2689 98.8001C81.3619 94.8931 79.167 89.594 79.167 84.0687V63.2354C79.167 62.1303 79.606 61.0705 80.3874 60.2891C81.1688 59.5077 82.2286 59.0687 83.3337 59.0687ZM68.7503 67.402H70.8337V79.902H68.7503C67.0927 79.902 65.503 79.2435 64.3309 78.0714C63.1588 76.8993 62.5003 75.3096 62.5003 73.652C62.5003 71.9944 63.1588 70.4047 64.3309 69.2326C65.503 68.0605 67.0927 67.402 68.7503 67.402Z" fill="#7D032C"/>
</g>
<defs>
<clipPath id="clip0_657_141">
<rect width="100" height="100" fill="white" transform="translate(50 50.7354)"/>
</clipPath>
</defs>
</svg>
