<svg width="208" height="209" viewBox="0 0 208 209" fill="none" xmlns="http://www.w3.org/2000/svg">
<g filter="url(#filter0_d_657_146)">
<rect x="4" y="0.735352" width="200" height="200" rx="15" fill="white"/>
<rect x="4.5" y="1.23535" width="199" height="199" rx="14.5" stroke="#EBF0F2"/>
<path d="M140.459 71.5687V108.027H134.209V71.5687C134.209 68.6979 131.871 66.3604 129 66.3604H79.0003C76.1295 66.3604 73.792 68.6979 73.792 71.5687V108.027H67.542V71.5687C67.542 65.2479 72.6795 60.1104 79.0003 60.1104H129C135.321 60.1104 140.459 65.2479 140.459 71.5687ZM116.5 72.6104H91.5003C89.7753 72.6104 88.3753 74.0104 88.3753 75.7354C88.3753 77.4604 89.7753 78.8604 91.5003 78.8604H116.5C118.225 78.8604 119.625 77.4604 119.625 75.7354C119.625 74.0104 118.225 72.6104 116.5 72.6104Z" fill="#2B4C54"/>
<path d="M143.709 127.769C142.388 123.36 139.725 119.569 136.175 116.815C138.796 114.344 140.459 110.865 140.459 106.985C140.459 99.5187 134.384 93.4437 126.917 93.4437C123.888 93.4437 121.121 94.477 118.863 96.1645C116.892 89.7895 111.013 85.1104 104 85.1104C96.988 85.1104 91.1088 89.7854 89.1379 96.1645C86.8796 94.4812 84.1129 93.4437 81.0838 93.4437C73.6171 93.4437 67.5421 99.5187 67.5421 106.985C67.5421 110.865 69.2046 114.344 71.8254 116.815C68.2754 119.569 65.6129 123.36 64.2921 127.769C63.6254 130.01 64.0421 132.369 65.4421 134.248C66.8338 136.119 68.9713 137.194 71.2963 137.194H76.9713C77.2213 137.71 77.5171 138.21 77.8921 138.669C79.3005 140.381 81.3796 141.36 83.5879 141.36H124.409C126.617 141.36 128.696 140.381 130.105 138.669C130.48 138.215 130.78 137.715 131.025 137.194H136.7C139.03 137.194 141.163 136.119 142.555 134.248C143.955 132.373 144.375 130.01 143.705 127.769H143.709ZM126.917 99.6937C130.938 99.6937 134.209 102.965 134.209 106.985C134.209 111.006 130.938 114.277 126.917 114.277C122.896 114.277 119.625 111.006 119.625 106.985C119.625 102.965 122.896 99.6937 126.917 99.6937ZM104 91.3604C109.167 91.3604 113.375 95.5687 113.375 100.735C113.375 105.902 109.167 110.11 104 110.11C98.8338 110.11 94.6255 105.902 94.6255 100.735C94.6255 95.5687 98.8338 91.3604 104 91.3604ZM81.0838 99.6937C85.1046 99.6937 88.3754 102.965 88.3754 106.985C88.3754 111.006 85.1046 114.277 81.0838 114.277C77.0629 114.277 73.7921 111.006 73.7921 106.985C73.7921 102.965 77.0629 99.6937 81.0838 99.6937ZM70.4504 130.51C70.3296 130.348 70.1463 130.006 70.2796 129.556C71.5088 125.448 74.3963 122.123 78.1963 120.198C79.1296 120.402 80.0879 120.523 81.0838 120.523C81.5046 120.523 81.9046 120.435 82.3171 120.398C79.8213 123.423 78.0004 127.002 76.9379 130.94H71.2963C70.8421 130.94 70.5713 130.677 70.4504 130.51ZM125.28 134.694C125.067 134.952 124.742 135.11 124.409 135.11H83.5921C83.2588 135.11 82.9338 134.956 82.7213 134.694C82.5504 134.485 82.4838 134.26 82.5296 134.035C84.5213 123.794 93.5546 116.36 104 116.36C114.446 116.36 123.484 123.794 125.471 134.035C125.517 134.265 125.45 134.485 125.28 134.694ZM137.546 130.51C137.425 130.673 137.155 130.944 136.7 130.944H131.059C130 127.006 128.175 123.427 125.68 120.402C126.092 120.44 126.488 120.527 126.913 120.527C127.905 120.527 128.867 120.406 129.8 120.202C133.6 122.127 136.488 125.452 137.717 129.56C137.85 130.006 137.667 130.344 137.546 130.51Z" fill="#7D032C"/>
</g>
<defs>
<filter id="filter0_d_657_146" x="0" y="0.735352" width="208" height="208" filterUnits="userSpaceOnUse" color-interpolation-filters="sRGB">
<feFlood flood-opacity="0" result="BackgroundImageFix"/>
<feColorMatrix in="SourceAlpha" type="matrix" values="0 0 0 0 0 0 0 0 0 0 0 0 0 0 0 0 0 0 127 0" result="hardAlpha"/>
<feOffset dy="4"/>
<feGaussianBlur stdDeviation="2"/>
<feComposite in2="hardAlpha" operator="out"/>
<feColorMatrix type="matrix" values="0 0 0 0 0 0 0 0 0 0 0 0 0 0 0 0 0 0 0.25 0"/>
<feBlend mode="normal" in2="BackgroundImageFix" result="effect1_dropShadow_657_146"/>
<feBlend mode="normal" in="SourceGraphic" in2="effect1_dropShadow_657_146" result="shape"/>
</filter>
</defs>
</svg>
